<svg width="1512" height="79" viewBox="0 0 1512 79" fill="none" xmlns="http://www.w3.org/2000/svg">
<rect width="1512" height="79" fill="white"/>
<path d="M1414 29L1411 33V47C1411 47.5304 1411.21 48.0391 1411.59 48.4142C1411.96 48.7893 1412.47 49 1413 49H1427C1427.53 49 1428.04 48.7893 1428.41 48.4142C1428.79 48.0391 1429 47.5304 1429 47V33L1426 29H1414Z" stroke="black" stroke-width="2" stroke-linecap="round" stroke-linejoin="round"/>
<path d="M1411 33H1429" stroke="black" stroke-width="2" stroke-linecap="round" stroke-linejoin="round"/>
<path d="M1424 37C1424 38.0609 1423.58 39.0783 1422.83 39.8284C1422.08 40.5786 1421.06 41 1420 41C1418.94 41 1417.92 40.5786 1417.17 39.8284C1416.42 39.0783 1416 38.0609 1416 37" stroke="black" stroke-width="2" stroke-linecap="round" stroke-linejoin="round"/>
<path d="M1355 46C1359.42 46 1363 42.4183 1363 38C1363 33.5817 1359.42 30 1355 30C1350.58 30 1347 33.5817 1347 38C1347 42.4183 1350.58 46 1355 46Z" stroke="black" stroke-width="2" stroke-linecap="round" stroke-linejoin="round"/>
<path d="M1365 48L1360.65 43.65" stroke="black" stroke-width="2" stroke-linecap="round" stroke-linejoin="round"/>
<path d="M546.08 33.88V45H544.256V40.136H539.024V45H537.2V33.88H539.024V38.648H544.256V33.88H546.08ZM552.305 45.144C551.473 45.144 550.721 44.9573 550.049 44.584C549.377 44.2 548.849 43.6667 548.465 42.984C548.081 42.2907 547.889 41.4907 547.889 40.584C547.889 39.688 548.087 38.8933 548.481 38.2C548.876 37.5067 549.415 36.9733 550.097 36.6C550.78 36.2267 551.543 36.04 552.385 36.04C553.228 36.04 553.991 36.2267 554.673 36.6C555.356 36.9733 555.895 37.5067 556.289 38.2C556.684 38.8933 556.881 39.688 556.881 40.584C556.881 41.48 556.679 42.2747 556.273 42.968C555.868 43.6613 555.313 44.2 554.609 44.584C553.916 44.9573 553.148 45.144 552.305 45.144ZM552.305 43.56C552.775 43.56 553.212 43.448 553.617 43.224C554.033 43 554.369 42.664 554.625 42.216C554.881 41.768 555.009 41.224 555.009 40.584C555.009 39.944 554.887 39.4053 554.641 38.968C554.396 38.52 554.071 38.184 553.665 37.96C553.26 37.736 552.823 37.624 552.353 37.624C551.884 37.624 551.447 37.736 551.041 37.96C550.647 38.184 550.332 38.52 550.097 38.968C549.863 39.4053 549.745 39.944 549.745 40.584C549.745 41.5333 549.985 42.2693 550.465 42.792C550.956 43.304 551.569 43.56 552.305 43.56ZM569.356 36.04C570.05 36.04 570.668 36.184 571.212 36.472C571.767 36.76 572.199 37.1867 572.508 37.752C572.828 38.3173 572.988 39 572.988 39.8V45H571.18V40.072C571.18 39.2827 570.983 38.68 570.588 38.264C570.194 37.8373 569.655 37.624 568.972 37.624C568.29 37.624 567.746 37.8373 567.34 38.264C566.946 38.68 566.748 39.2827 566.748 40.072V45H564.94V40.072C564.94 39.2827 564.743 38.68 564.348 38.264C563.954 37.8373 563.415 37.624 562.732 37.624C562.05 37.624 561.506 37.8373 561.1 38.264C560.706 38.68 560.508 39.2827 560.508 40.072V45H558.684V36.184H560.508V37.192C560.807 36.8293 561.186 36.5467 561.644 36.344C562.103 36.1413 562.594 36.04 563.116 36.04C563.82 36.04 564.45 36.1893 565.004 36.488C565.559 36.7867 565.986 37.2187 566.284 37.784C566.551 37.2507 566.967 36.8293 567.532 36.52C568.098 36.2 568.706 36.04 569.356 36.04ZM583.389 40.376C583.389 40.7067 583.368 41.0053 583.325 41.272H576.589C576.643 41.976 576.904 42.5413 577.373 42.968C577.843 43.3947 578.419 43.608 579.101 43.608C580.083 43.608 580.776 43.1973 581.181 42.376H583.149C582.883 43.1867 582.397 43.8533 581.693 44.376C581 44.888 580.136 45.144 579.101 45.144C578.259 45.144 577.501 44.9573 576.829 44.584C576.168 44.2 575.645 43.6667 575.261 42.984C574.888 42.2907 574.701 41.4907 574.701 40.584C574.701 39.6773 574.883 38.8827 575.245 38.2C575.619 37.5067 576.136 36.9733 576.797 36.6C577.469 36.2267 578.237 36.04 579.101 36.04C579.933 36.04 580.675 36.2213 581.325 36.584C581.976 36.9467 582.483 37.4587 582.845 38.12C583.208 38.7707 583.389 39.5227 583.389 40.376ZM581.485 39.8C581.475 39.128 581.235 38.5893 580.765 38.184C580.296 37.7787 579.715 37.576 579.021 37.576C578.392 37.576 577.853 37.7787 577.405 38.184C576.957 38.5787 576.691 39.1173 576.605 39.8H581.485Z" fill="black"/>
<path d="M675.592 39.416C675.592 38.328 675.843 37.352 676.344 36.488C676.856 35.624 677.544 34.952 678.408 34.472C679.283 33.9813 680.237 33.736 681.272 33.736C682.456 33.736 683.507 34.0293 684.424 34.616C685.352 35.192 686.024 36.0133 686.44 37.08H684.248C683.96 36.4933 683.56 36.056 683.048 35.768C682.536 35.48 681.944 35.336 681.272 35.336C680.536 35.336 679.88 35.5013 679.304 35.832C678.728 36.1627 678.275 36.6373 677.944 37.256C677.624 37.8747 677.464 38.5947 677.464 39.416C677.464 40.2373 677.624 40.9573 677.944 41.576C678.275 42.1947 678.728 42.6747 679.304 43.016C679.88 43.3467 680.536 43.512 681.272 43.512C681.944 43.512 682.536 43.368 683.048 43.08C683.56 42.792 683.96 42.3547 684.248 41.768H686.44C686.024 42.8347 685.352 43.656 684.424 44.232C683.507 44.808 682.456 45.096 681.272 45.096C680.227 45.096 679.272 44.856 678.408 44.376C677.544 43.8853 676.856 43.208 676.344 42.344C675.843 41.48 675.592 40.504 675.592 39.416ZM687.967 40.552C687.967 39.6667 688.148 38.8827 688.511 38.2C688.884 37.5173 689.386 36.9893 690.015 36.616C690.655 36.232 691.359 36.04 692.127 36.04C692.82 36.04 693.423 36.1787 693.935 36.456C694.458 36.7227 694.874 37.0587 695.183 37.464V36.184H697.023V45H695.183V43.688C694.874 44.104 694.452 44.4507 693.919 44.728C693.386 45.0053 692.778 45.144 692.095 45.144C691.338 45.144 690.644 44.952 690.015 44.568C689.386 44.1733 688.884 43.6293 688.511 42.936C688.148 42.232 687.967 41.4373 687.967 40.552ZM695.183 40.584C695.183 39.976 695.055 39.448 694.799 39C694.554 38.552 694.228 38.2107 693.823 37.976C693.418 37.7413 692.98 37.624 692.511 37.624C692.042 37.624 691.604 37.7413 691.199 37.976C690.794 38.2 690.463 38.536 690.207 38.984C689.962 39.4213 689.839 39.944 689.839 40.552C689.839 41.16 689.962 41.6933 690.207 42.152C690.463 42.6107 690.794 42.9627 691.199 43.208C691.615 43.4427 692.052 43.56 692.511 43.56C692.98 43.56 693.418 43.4427 693.823 43.208C694.228 42.9733 694.554 42.632 694.799 42.184C695.055 41.7253 695.183 41.192 695.183 40.584ZM701.547 37.672V42.552C701.547 42.8827 701.621 43.1227 701.771 43.272C701.931 43.4107 702.197 43.48 702.571 43.48H703.691V45H702.251C701.429 45 700.8 44.808 700.363 44.424C699.925 44.04 699.707 43.416 699.707 42.552V37.672H698.667V36.184H699.707V33.992H701.547V36.184H703.691V37.672H701.547ZM713.452 40.376C713.452 40.7067 713.431 41.0053 713.388 41.272H706.652C706.705 41.976 706.967 42.5413 707.436 42.968C707.905 43.3947 708.481 43.608 709.164 43.608C710.145 43.608 710.839 43.1973 711.244 42.376H713.212C712.945 43.1867 712.46 43.8533 711.756 44.376C711.063 44.888 710.199 45.144 709.164 45.144C708.321 45.144 707.564 44.9573 706.892 44.584C706.231 44.2 705.708 43.6667 705.324 42.984C704.951 42.2907 704.764 41.4907 704.764 40.584C704.764 39.6773 704.945 38.8827 705.308 38.2C705.681 37.5067 706.199 36.9733 706.86 36.6C707.532 36.2267 708.3 36.04 709.164 36.04C709.996 36.04 710.737 36.2213 711.388 36.584C712.039 36.9467 712.545 37.4587 712.908 38.12C713.271 38.7707 713.452 39.5227 713.452 40.376ZM711.548 39.8C711.537 39.128 711.297 38.5893 710.828 38.184C710.359 37.7787 709.777 37.576 709.084 37.576C708.455 37.576 707.916 37.7787 707.468 38.184C707.02 38.5787 706.753 39.1173 706.668 39.8H711.548ZM718.799 36.04C719.482 36.04 720.084 36.1787 720.607 36.456C721.14 36.7227 721.556 37.0587 721.855 37.464V36.184H723.695V45.144C723.695 45.9547 723.524 46.6747 723.183 47.304C722.842 47.944 722.346 48.4453 721.695 48.808C721.055 49.1707 720.287 49.352 719.391 49.352C718.196 49.352 717.204 49.0693 716.415 48.504C715.626 47.9493 715.178 47.192 715.071 46.232H716.879C717.018 46.6907 717.311 47.0587 717.759 47.336C718.218 47.624 718.762 47.768 719.391 47.768C720.127 47.768 720.719 47.544 721.167 47.096C721.626 46.648 721.855 45.9973 721.855 45.144V43.672C721.546 44.088 721.124 44.44 720.591 44.728C720.068 45.0053 719.471 45.144 718.799 45.144C718.031 45.144 717.327 44.952 716.687 44.568C716.058 44.1733 715.556 43.6293 715.183 42.936C714.82 42.232 714.639 41.4373 714.639 40.552C714.639 39.6667 714.82 38.8827 715.183 38.2C715.556 37.5173 716.058 36.9893 716.687 36.616C717.327 36.232 718.031 36.04 718.799 36.04ZM721.855 40.584C721.855 39.976 721.727 39.448 721.471 39C721.226 38.552 720.9 38.2107 720.495 37.976C720.09 37.7413 719.652 37.624 719.183 37.624C718.714 37.624 718.276 37.7413 717.871 37.976C717.466 38.2 717.135 38.536 716.879 38.984C716.634 39.4213 716.511 39.944 716.511 40.552C716.511 41.16 716.634 41.6933 716.879 42.152C717.135 42.6107 717.466 42.9627 717.871 43.208C718.287 43.4427 718.724 43.56 719.183 43.56C719.652 43.56 720.09 43.4427 720.495 43.208C720.9 42.9733 721.226 42.632 721.471 42.184C721.727 41.7253 721.855 41.192 721.855 40.584ZM729.915 45.144C729.083 45.144 728.331 44.9573 727.659 44.584C726.987 44.2 726.459 43.6667 726.075 42.984C725.691 42.2907 725.499 41.4907 725.499 40.584C725.499 39.688 725.696 38.8933 726.091 38.2C726.485 37.5067 727.024 36.9733 727.707 36.6C728.389 36.2267 729.152 36.04 729.995 36.04C730.837 36.04 731.6 36.2267 732.283 36.6C732.965 36.9733 733.504 37.5067 733.899 38.2C734.293 38.8933 734.491 39.688 734.491 40.584C734.491 41.48 734.288 42.2747 733.883 42.968C733.477 43.6613 732.923 44.2 732.219 44.584C731.525 44.9573 730.757 45.144 729.915 45.144ZM729.915 43.56C730.384 43.56 730.821 43.448 731.227 43.224C731.643 43 731.979 42.664 732.235 42.216C732.491 41.768 732.619 41.224 732.619 40.584C732.619 39.944 732.496 39.4053 732.251 38.968C732.005 38.52 731.68 38.184 731.275 37.96C730.869 37.736 730.432 37.624 729.963 37.624C729.493 37.624 729.056 37.736 728.651 37.96C728.256 38.184 727.941 38.52 727.707 38.968C727.472 39.4053 727.355 39.944 727.355 40.584C727.355 41.5333 727.595 42.2693 728.075 42.792C728.565 43.304 729.179 43.56 729.915 43.56ZM738.118 37.464C738.384 37.016 738.736 36.6693 739.174 36.424C739.622 36.168 740.15 36.04 740.758 36.04V37.928H740.294C739.579 37.928 739.035 38.1093 738.662 38.472C738.299 38.8347 738.118 39.464 738.118 40.36V45H736.294V36.184H738.118V37.464ZM750.37 36.184L744.962 49.144H743.074L744.866 44.856L741.394 36.184H743.426L745.906 42.904L748.482 36.184H750.37Z" fill="black"/>
<path d="M845.024 35.352V38.616H848.864V40.104H845.024V43.512H849.344V45H843.2V33.864H849.344V35.352H845.024ZM855.367 40.536L858.215 45H856.151L854.247 42.008L852.455 45H850.551L853.399 40.664L850.551 36.184H852.615L854.519 39.176L856.311 36.184H858.215L855.367 40.536ZM861.399 37.48C861.708 37.0747 862.13 36.7333 862.663 36.456C863.196 36.1787 863.799 36.04 864.471 36.04C865.239 36.04 865.938 36.232 866.567 36.616C867.207 36.9893 867.708 37.5173 868.071 38.2C868.434 38.8827 868.615 39.6667 868.615 40.552C868.615 41.4373 868.434 42.232 868.071 42.936C867.708 43.6293 867.207 44.1733 866.567 44.568C865.938 44.952 865.239 45.144 864.471 45.144C863.799 45.144 863.202 45.0107 862.679 44.744C862.156 44.4667 861.73 44.1253 861.399 43.72V49.192H859.575V36.184H861.399V37.48ZM866.759 40.552C866.759 39.944 866.631 39.4213 866.375 38.984C866.13 38.536 865.799 38.2 865.383 37.976C864.978 37.7413 864.54 37.624 864.071 37.624C863.612 37.624 863.175 37.7413 862.759 37.976C862.354 38.2107 862.023 38.552 861.767 39C861.522 39.448 861.399 39.976 861.399 40.584C861.399 41.192 861.522 41.7253 861.767 42.184C862.023 42.632 862.354 42.9733 862.759 43.208C863.175 43.4427 863.612 43.56 864.071 43.56C864.54 43.56 864.978 43.4427 865.383 43.208C865.799 42.9627 866.13 42.6107 866.375 42.152C866.631 41.6933 866.759 41.16 866.759 40.552ZM872.243 33.16V45H870.419V33.16H872.243ZM878.462 45.144C877.63 45.144 876.878 44.9573 876.206 44.584C875.534 44.2 875.006 43.6667 874.622 42.984C874.238 42.2907 874.046 41.4907 874.046 40.584C874.046 39.688 874.243 38.8933 874.638 38.2C875.032 37.5067 875.571 36.9733 876.254 36.6C876.936 36.2267 877.699 36.04 878.542 36.04C879.384 36.04 880.147 36.2267 880.83 36.6C881.512 36.9733 882.051 37.5067 882.446 38.2C882.84 38.8933 883.038 39.688 883.038 40.584C883.038 41.48 882.835 42.2747 882.43 42.968C882.024 43.6613 881.47 44.2 880.766 44.584C880.072 44.9573 879.304 45.144 878.462 45.144ZM878.462 43.56C878.931 43.56 879.368 43.448 879.774 43.224C880.19 43 880.526 42.664 880.782 42.216C881.038 41.768 881.166 41.224 881.166 40.584C881.166 39.944 881.043 39.4053 880.798 38.968C880.552 38.52 880.227 38.184 879.822 37.96C879.416 37.736 878.979 37.624 878.51 37.624C878.04 37.624 877.603 37.736 877.198 37.96C876.803 38.184 876.488 38.52 876.254 38.968C876.019 39.4053 875.902 39.944 875.902 40.584C875.902 41.5333 876.142 42.2693 876.622 42.792C877.112 43.304 877.726 43.56 878.462 43.56ZM886.665 37.464C886.931 37.016 887.283 36.6693 887.721 36.424C888.169 36.168 888.697 36.04 889.305 36.04V37.928H888.841C888.126 37.928 887.582 38.1093 887.209 38.472C886.846 38.8347 886.665 39.464 886.665 40.36V45H884.841V36.184H886.665V37.464ZM899.061 40.376C899.061 40.7067 899.04 41.0053 898.997 41.272H892.261C892.315 41.976 892.576 42.5413 893.045 42.968C893.515 43.3947 894.091 43.608 894.773 43.608C895.755 43.608 896.448 43.1973 896.853 42.376H898.821C898.555 43.1867 898.069 43.8533 897.365 44.376C896.672 44.888 895.808 45.144 894.773 45.144C893.931 45.144 893.173 44.9573 892.501 44.584C891.84 44.2 891.317 43.6667 890.933 42.984C890.56 42.2907 890.373 41.4907 890.373 40.584C890.373 39.6773 890.555 38.8827 890.917 38.2C891.291 37.5067 891.808 36.9733 892.469 36.6C893.141 36.2267 893.909 36.04 894.773 36.04C895.605 36.04 896.347 36.2213 896.997 36.584C897.648 36.9467 898.155 37.4587 898.517 38.12C898.88 38.7707 899.061 39.5227 899.061 40.376ZM897.157 39.8C897.147 39.128 896.907 38.5893 896.437 38.184C895.968 37.7787 895.387 37.576 894.693 37.576C894.064 37.576 893.525 37.7787 893.077 38.184C892.629 38.5787 892.363 39.1173 892.277 39.8H897.157ZM912.789 37.192C912.789 37.7573 912.655 38.2907 912.389 38.792C912.122 39.2933 911.695 39.704 911.109 40.024C910.522 40.3333 909.77 40.488 908.853 40.488H906.837V45H905.013V33.88H908.853C909.706 33.88 910.426 34.0293 911.013 34.328C911.61 34.616 912.053 35.0107 912.341 35.512C912.639 36.0133 912.789 36.5733 912.789 37.192ZM908.853 39C909.546 39 910.063 38.8453 910.405 38.536C910.746 38.216 910.917 37.768 910.917 37.192C910.917 35.976 910.229 35.368 908.853 35.368H906.837V39H908.853ZM916.352 37.464C916.619 37.016 916.971 36.6693 917.408 36.424C917.856 36.168 918.384 36.04 918.992 36.04V37.928H918.528C917.813 37.928 917.269 38.1093 916.896 38.472C916.533 38.8347 916.352 39.464 916.352 40.36V45H914.528V36.184H916.352V37.464ZM924.493 45.144C923.661 45.144 922.909 44.9573 922.237 44.584C921.565 44.2 921.037 43.6667 920.653 42.984C920.269 42.2907 920.077 41.4907 920.077 40.584C920.077 39.688 920.274 38.8933 920.669 38.2C921.063 37.5067 921.602 36.9733 922.285 36.6C922.967 36.2267 923.73 36.04 924.573 36.04C925.415 36.04 926.178 36.2267 926.861 36.6C927.543 36.9733 928.082 37.5067 928.477 38.2C928.871 38.8933 929.069 39.688 929.069 40.584C929.069 41.48 928.866 42.2747 928.461 42.968C928.055 43.6613 927.501 44.2 926.797 44.584C926.103 44.9573 925.335 45.144 924.493 45.144ZM924.493 43.56C924.962 43.56 925.399 43.448 925.805 43.224C926.221 43 926.557 42.664 926.813 42.216C927.069 41.768 927.197 41.224 927.197 40.584C927.197 39.944 927.074 39.4053 926.829 38.968C926.583 38.52 926.258 38.184 925.853 37.96C925.447 37.736 925.01 37.624 924.541 37.624C924.071 37.624 923.634 37.736 923.229 37.96C922.834 38.184 922.519 38.52 922.285 38.968C922.05 39.4053 921.933 39.944 921.933 40.584C921.933 41.5333 922.173 42.2693 922.653 42.792C923.143 43.304 923.757 43.56 924.493 43.56ZM930.264 40.552C930.264 39.6667 930.445 38.8827 930.808 38.2C931.181 37.5173 931.683 36.9893 932.312 36.616C932.952 36.232 933.661 36.04 934.44 36.04C935.016 36.04 935.581 36.168 936.136 36.424C936.701 36.6693 937.149 37 937.48 37.416V33.16H939.32V45H937.48V43.672C937.181 44.0987 936.765 44.4507 936.232 44.728C935.709 45.0053 935.107 45.144 934.424 45.144C933.656 45.144 932.952 44.952 932.312 44.568C931.683 44.1733 931.181 43.6293 930.808 42.936C930.445 42.232 930.264 41.4373 930.264 40.552ZM937.48 40.584C937.48 39.976 937.352 39.448 937.096 39C936.851 38.552 936.525 38.2107 936.12 37.976C935.715 37.7413 935.277 37.624 934.808 37.624C934.339 37.624 933.901 37.7413 933.496 37.976C933.091 38.2 932.76 38.536 932.504 38.984C932.259 39.4213 932.136 39.944 932.136 40.552C932.136 41.16 932.259 41.6933 932.504 42.152C932.76 42.6107 933.091 42.9627 933.496 43.208C933.912 43.4427 934.349 43.56 934.808 43.56C935.277 43.56 935.715 43.4427 936.12 43.208C936.525 42.9733 936.851 42.632 937.096 42.184C937.352 41.7253 937.48 41.192 937.48 40.584ZM949.7 36.184V45H947.876V43.96C947.588 44.3227 947.209 44.6107 946.74 44.824C946.281 45.0267 945.79 45.128 945.268 45.128C944.574 45.128 943.95 44.984 943.396 44.696C942.852 44.408 942.42 43.9813 942.1 43.416C941.79 42.8507 941.636 42.168 941.636 41.368V36.184H943.444V41.096C943.444 41.8853 943.641 42.4933 944.036 42.92C944.43 43.336 944.969 43.544 945.652 43.544C946.334 43.544 946.873 43.336 947.268 42.92C947.673 42.4933 947.876 41.8853 947.876 41.096V36.184H949.7ZM951.498 40.584C951.498 39.6773 951.68 38.8827 952.042 38.2C952.416 37.5067 952.928 36.9733 953.578 36.6C954.229 36.2267 954.976 36.04 955.818 36.04C956.885 36.04 957.765 36.296 958.458 36.808C959.162 37.3093 959.637 38.0293 959.882 38.968H957.914C957.754 38.5307 957.498 38.1893 957.146 37.944C956.794 37.6987 956.352 37.576 955.818 37.576C955.072 37.576 954.474 37.8427 954.026 38.376C953.589 38.8987 953.37 39.6347 953.37 40.584C953.37 41.5333 953.589 42.2747 954.026 42.808C954.474 43.3413 955.072 43.608 955.818 43.608C956.874 43.608 957.573 43.144 957.914 42.216H959.882C959.626 43.112 959.146 43.8267 958.442 44.36C957.738 44.8827 956.864 45.144 955.818 45.144C954.976 45.144 954.229 44.9573 953.578 44.584C952.928 44.2 952.416 43.6667 952.042 42.984C951.68 42.2907 951.498 41.4907 951.498 40.584ZM963.828 37.672V42.552C963.828 42.8827 963.903 43.1227 964.052 43.272C964.212 43.4107 964.479 43.48 964.852 43.48H965.972V45H964.532C963.711 45 963.081 44.808 962.644 44.424C962.207 44.04 961.988 43.416 961.988 42.552V37.672H960.948V36.184H961.988V33.992H963.828V36.184H965.972V37.672H963.828ZM970.853 45.144C970.16 45.144 969.536 45.0213 968.981 44.776C968.437 44.52 968.005 44.1787 967.685 43.752C967.365 43.3147 967.194 42.8293 967.173 42.296H969.061C969.093 42.6693 969.269 42.984 969.589 43.24C969.92 43.4853 970.33 43.608 970.821 43.608C971.333 43.608 971.728 43.512 972.005 43.32C972.293 43.1173 972.437 42.8613 972.437 42.552C972.437 42.2213 972.277 41.976 971.957 41.816C971.648 41.656 971.152 41.48 970.469 41.288C969.808 41.1067 969.269 40.9307 968.853 40.76C968.437 40.5893 968.074 40.328 967.765 39.976C967.466 39.624 967.317 39.16 967.317 38.584C967.317 38.1147 967.456 37.688 967.733 37.304C968.01 36.9093 968.405 36.6 968.917 36.376C969.44 36.152 970.037 36.04 970.709 36.04C971.712 36.04 972.517 36.296 973.125 36.808C973.744 37.3093 974.074 37.9973 974.117 38.872H972.293C972.261 38.4773 972.101 38.1627 971.813 37.928C971.525 37.6933 971.136 37.576 970.645 37.576C970.165 37.576 969.797 37.6667 969.541 37.848C969.285 38.0293 969.157 38.2693 969.157 38.568C969.157 38.8027 969.242 39 969.413 39.16C969.584 39.32 969.792 39.448 970.037 39.544C970.282 39.6293 970.645 39.7413 971.125 39.88C971.765 40.0507 972.288 40.2267 972.693 40.408C973.109 40.5787 973.466 40.8347 973.765 41.176C974.064 41.5173 974.218 41.9707 974.229 42.536C974.229 43.0373 974.09 43.4853 973.813 43.88C973.536 44.2747 973.141 44.584 972.629 44.808C972.128 45.032 971.536 45.144 970.853 45.144Z" fill="black"/>
<rect x="549" y="54" width="22" height="3" rx="1.5" fill="#FF5F3F"/>
<circle cx="1432.5" cy="28.5" r="6.5" fill="#FF5F3F"/>
<path d="M1430.52 27.059C1430.56 26.501 1430.77 26.066 1431.16 25.754C1431.56 25.442 1432.06 25.286 1432.67 25.286C1433.09 25.286 1433.46 25.361 1433.76 25.511C1434.07 25.661 1434.3 25.865 1434.46 26.123C1434.61 26.381 1434.69 26.672 1434.69 26.996C1434.69 27.368 1434.59 27.686 1434.39 27.95C1434.19 28.214 1433.96 28.391 1433.68 28.481V28.517C1434.04 28.625 1434.31 28.823 1434.51 29.111C1434.71 29.393 1434.81 29.756 1434.81 30.2C1434.81 30.554 1434.73 30.869 1434.56 31.145C1434.4 31.421 1434.16 31.64 1433.84 31.802C1433.53 31.958 1433.14 32.036 1432.7 32.036C1432.05 32.036 1431.52 31.871 1431.1 31.541C1430.68 31.205 1430.46 30.725 1430.43 30.101H1431.42C1431.45 30.419 1431.57 30.68 1431.79 30.884C1432.01 31.082 1432.31 31.181 1432.69 31.181C1433.06 31.181 1433.34 31.082 1433.54 30.884C1433.74 30.68 1433.83 30.419 1433.83 30.101C1433.83 29.681 1433.7 29.384 1433.43 29.21C1433.17 29.03 1432.76 28.94 1432.21 28.94H1431.97V28.094H1432.21C1432.7 28.088 1433.07 28.007 1433.32 27.851C1433.58 27.695 1433.71 27.449 1433.71 27.113C1433.71 26.825 1433.62 26.597 1433.43 26.429C1433.24 26.255 1432.98 26.168 1432.64 26.168C1432.3 26.168 1432.04 26.255 1431.85 26.429C1431.67 26.597 1431.56 26.807 1431.52 27.059H1430.52Z" fill="white"/>
<path d="M116.517 35C116.56 34.5312 116.446 34.1643 116.176 33.8991C115.906 33.6293 115.452 33.4943 114.812 33.4943C114.405 33.4943 114.064 33.5417 113.79 33.6364C113.52 33.7311 113.309 33.8613 113.158 34.027C113.011 34.1927 112.919 34.3845 112.881 34.6023C112.838 34.7727 112.84 34.929 112.888 35.071C112.94 35.2083 113.037 35.3338 113.179 35.4474C113.326 35.5611 113.518 35.6629 113.754 35.7528C113.996 35.8428 114.282 35.9233 114.614 35.9943L115.75 36.25C116.527 36.4205 117.178 36.6454 117.703 36.9247C118.233 37.1993 118.65 37.526 118.953 37.9048C119.256 38.2836 119.455 38.7074 119.55 39.1761C119.649 39.6449 119.652 40.1562 119.557 40.7102C119.396 41.6667 119.024 42.4763 118.442 43.1392C117.859 43.8021 117.099 44.3063 116.162 44.652C115.224 44.9976 114.14 45.1705 112.909 45.1705C111.65 45.1705 110.58 44.9834 109.699 44.6094C108.823 44.2306 108.188 43.6529 107.795 42.8764C107.407 42.0952 107.313 41.0985 107.511 39.8864H111.261C111.205 40.3314 111.252 40.7055 111.403 41.0085C111.555 41.3116 111.799 41.5412 112.135 41.6974C112.471 41.8537 112.89 41.9318 113.392 41.9318C113.818 41.9318 114.183 41.8797 114.486 41.7756C114.789 41.6714 115.028 41.527 115.203 41.3423C115.378 41.1577 115.485 40.947 115.523 40.7102C115.561 40.4924 115.523 40.2983 115.409 40.1278C115.295 39.9574 115.089 39.8035 114.791 39.6662C114.493 39.5289 114.083 39.4034 113.562 39.2898L112.17 38.9773C110.935 38.6932 110.002 38.2244 109.372 37.571C108.742 36.9176 108.52 36.0227 108.705 34.8864C108.856 33.9583 109.237 33.1487 109.848 32.4574C110.464 31.7614 111.245 31.2216 112.192 30.8381C113.143 30.4498 114.197 30.2557 115.352 30.2557C116.527 30.2557 117.509 30.4522 118.3 30.8452C119.095 31.2382 119.666 31.7898 120.011 32.5C120.362 33.2102 120.456 34.0436 120.295 35H116.517ZM120.349 45L122.763 30.4545H129.042C130.121 30.4545 131.031 30.6676 131.769 31.0938C132.508 31.5199 133.038 32.1188 133.36 32.8906C133.682 33.6624 133.758 34.5644 133.587 35.5966C133.417 36.6477 133.038 37.5545 132.451 38.3168C131.869 39.0743 131.125 39.6591 130.221 40.071C129.321 40.4782 128.313 40.6818 127.195 40.6818H123.445L123.957 37.6136H126.911C127.385 37.6136 127.801 37.5331 128.161 37.3722C128.521 37.2064 128.812 36.9744 129.035 36.6761C129.257 36.3731 129.402 36.0133 129.468 35.5966C129.534 35.1799 129.504 34.8248 129.376 34.5312C129.253 34.233 129.04 34.0057 128.737 33.8494C128.438 33.6884 128.057 33.608 127.593 33.608H126.201L124.298 45H120.349ZM148.729 37.983C148.464 39.5644 147.939 40.8902 147.153 41.9602C146.367 43.0303 145.413 43.8376 144.29 44.3821C143.168 44.9266 141.968 45.1989 140.69 45.1989C139.326 45.1989 138.142 44.9029 137.138 44.3111C136.135 43.7192 135.403 42.8527 134.944 41.7116C134.485 40.5705 134.392 39.1761 134.667 37.5284C134.923 35.947 135.443 34.6165 136.229 33.5369C137.015 32.4574 137.974 31.6406 139.106 31.0866C140.237 30.5327 141.447 30.2557 142.735 30.2557C144.089 30.2557 145.266 30.554 146.265 31.1506C147.269 31.7472 147.998 32.6207 148.452 33.7713C148.912 34.9219 149.004 36.3258 148.729 37.983ZM144.752 37.5284C144.885 36.6951 144.894 35.9943 144.781 35.4261C144.667 34.8532 144.428 34.4223 144.063 34.1335C143.699 33.84 143.209 33.6932 142.593 33.6932C141.892 33.6932 141.272 33.8636 140.732 34.2045C140.192 34.5455 139.745 35.0355 139.39 35.6747C139.035 36.3139 138.786 37.0833 138.644 37.983C138.493 38.8258 138.478 39.5265 138.602 40.0852C138.729 40.6439 138.98 41.063 139.354 41.3423C139.733 41.6217 140.226 41.7614 140.832 41.7614C141.523 41.7614 142.134 41.5956 142.664 41.2642C143.199 40.9328 143.642 40.4522 143.992 39.8224C144.347 39.1927 144.601 38.428 144.752 37.5284ZM149.392 45L151.806 30.4545H158.085C159.164 30.4545 160.076 30.651 160.819 31.044C161.563 31.437 162.098 32.0028 162.424 32.7415C162.751 33.4801 162.829 34.3655 162.659 35.3977C162.488 36.4394 162.112 37.3177 161.529 38.0327C160.952 38.7429 160.216 39.2827 159.321 39.652C158.431 40.0166 157.431 40.1989 156.324 40.1989H152.574L153.085 37.1307H156.039C156.503 37.1307 156.911 37.0739 157.261 36.9602C157.611 36.8419 157.895 36.6572 158.113 36.4062C158.331 36.1506 158.473 35.8144 158.539 35.3977C158.606 34.9811 158.573 34.6425 158.44 34.3821C158.307 34.117 158.087 33.9228 157.779 33.7997C157.472 33.6719 157.091 33.608 156.636 33.608H155.244L153.341 45H149.392ZM159.022 38.3239L161.551 45H157.261L154.818 38.3239H159.022ZM164.424 33.6364L164.963 30.4545H177.605L177.066 33.6364H172.691L170.816 45H166.924L168.799 33.6364H164.424Z" fill="black"/>
<path d="M191.249 37.983C190.984 39.5644 190.458 40.8902 189.672 41.9602C188.886 43.0303 187.932 43.8376 186.81 44.3821C185.688 44.9266 184.488 45.1989 183.209 45.1989C181.846 45.1989 180.662 44.9029 179.658 44.3111C178.654 43.7192 177.923 42.8527 177.463 41.7116C177.004 40.5705 176.912 39.1761 177.186 37.5284C177.442 35.947 177.963 34.6165 178.749 33.5369C179.535 32.4574 180.494 31.6406 181.625 31.0866C182.757 30.5327 183.967 30.2557 185.255 30.2557C186.609 30.2557 187.785 30.554 188.784 31.1506C189.788 31.7472 190.517 32.6207 190.972 33.7713C191.431 34.9219 191.524 36.3258 191.249 37.983ZM187.272 37.5284C187.404 36.6951 187.414 35.9943 187.3 35.4261C187.186 34.8532 186.947 34.4223 186.583 34.1335C186.218 33.84 185.728 33.6932 185.113 33.6932C184.412 33.6932 183.792 33.8636 183.252 34.2045C182.712 34.5455 182.265 35.0355 181.909 35.6747C181.554 36.3139 181.306 37.0833 181.164 37.983C181.012 38.8258 180.998 39.5265 181.121 40.0852C181.249 40.6439 181.5 41.063 181.874 41.3423C182.253 41.6217 182.745 41.7614 183.351 41.7614C184.042 41.7614 184.653 41.5956 185.184 41.2642C185.719 40.9328 186.161 40.4522 186.512 39.8224C186.867 39.1927 187.12 38.428 187.272 37.5284ZM206.911 30.4545L204.496 45H201.201L197.224 37.358H197.138L195.86 45H191.911L194.326 30.4545H197.678L201.599 38.0682H201.712L202.962 30.4545H206.911Z" fill="#FF5F3F"/>
<path d="M87.3684 40.7368L88.4211 50.7368L82.1053 46.5263V43.3684L80 41.7895L81.3158 30.4737L90 27.3158V41.7895L89.4737 41.5263L89.2105 38.1053L83.6842 34.9474L83.4211 38.3684L87.3684 40.7368Z" fill="#0C0707"/>
<path d="M92.6316 40.7368L91.5789 50.7368L97.8947 46.5263V43.3684L100 41.7895L98.6842 30.4737L90 27.3158V41.7895L90.5263 41.5263L90.7895 38.1053L96.3158 34.9474L96.5789 38.3684L92.6316 40.7368Z" fill="#0C0707"/>
<path d="M90 26.7895L82.8947 29.4211L84.7368 26.7895L90 24.1579V26.7895Z" fill="#FF5F3F"/>
<path d="M90 26.7895L97.1053 29.4211L95.2632 26.7895L90 24.1579V26.7895Z" fill="#FF5F3F"/>
<path d="M90 23.6316L88.4211 24.4211L88.7005 23.1053L90 21V23.6316Z" fill="black"/>
<path d="M90 23.6316L91.5789 24.4211L91.2995 23.1053L90 21V23.6316Z" fill="black"/>
</svg>
